<?xml version="1.0" standalone="no"?>
<!DOCTYPE svg PUBLIC "-//W3C//DTD SVG 20010904//EN"
 "http://www.w3.org/TR/2001/REC-SVG-20010904/DTD/svg10.dtd">
<svg version="1.0" xmlns="http://www.w3.org/2000/svg"
 width="1080.000000pt" height="1081.000000pt" viewBox="0 0 1080.000000 1081.000000"
 preserveAspectRatio="xMidYMid meet">

<g transform="translate(0.000000,1081.000000) scale(0.100000,-0.100000)"
fill="#000000" stroke="none">
<path d="M5422 8849 c-533 -32 -975 -220 -1312 -559 -124 -124 -219 -254 -295
-402 -60 -115 -125 -297 -125 -347 0 -26 -6 -34 -42 -52 -82 -41 -190 -123
-251 -189 -99 -108 -165 -232 -151 -286 12 -48 42 -57 202 -60 234 -5 434 -44
489 -96 31 -29 29 -59 -8 -148 -53 -126 -42 -190 51 -273 87 -78 260 -152 590
-251 110 -33 194 -83 292 -175 182 -171 330 -431 401 -706 34 -131 47 -233 47
-365 0 -101 -2 -112 -30 -166 -209 -396 -717 -704 -1287 -779 -139 -19 -429
-21 -558 -5 -414 51 -794 216 -1082 470 -51 45 -93 84 -93 88 0 4 -26 35 -58
70 -51 54 -63 62 -94 62 -20 0 -46 -8 -59 -19 -34 -28 -30 -98 16 -251 159
-536 435 -1010 818 -1406 562 -582 1271 -932 2087 -1030 198 -24 572 -24 770
0 949 114 1717 514 2272 1182 403 486 655 1094 744 1799 22 172 25 594 6 760
-100 847 -464 1564 -1088 2145 -67 63 -140 138 -160 165 -83 114 -231 244
-417 366 -500 331 -1091 493 -1675 458z m354 -19 c494 -39 964 -209 1378 -499
183 -127 396 -348 396 -409 0 -34 -107 4 -410 148 -329 156 -404 184 -485 184
-86 0 -118 -15 -234 -114 -47 -40 -96 -76 -109 -81 -35 -13 -108 10 -207 66
-292 164 -322 168 -445 49 -63 -61 -119 -94 -157 -94 -38 0 -121 51 -206 124
-102 88 -151 116 -205 116 -53 0 -87 -29 -108 -93 -32 -98 -52 -127 -101 -149
-62 -27 -112 -19 -233 37 -111 52 -155 57 -196 22 -24 -21 -28 -33 -36 -123
-17 -177 -52 -210 -241 -224 -187 -14 -227 -45 -227 -176 0 -57 -4 -78 -22
-104 -45 -66 -158 -101 -200 -63 -29 26 -24 117 12 225 117 349 392 678 743
888 347 207 824 307 1293 270z m-882 -1184 c358 -58 699 -180 909 -325 72 -49
137 -128 137 -165 0 -62 -100 -127 -280 -181 -218 -66 -333 -37 -408 104 -66
123 -121 138 -250 70 -122 -64 -162 -52 -265 84 -96 126 -157 143 -262 73
-104 -69 -168 -68 -291 4 -105 61 -168 51 -218 -34 -59 -101 -116 -121 -248
-86 -102 26 -143 22 -181 -18 -14 -15 -35 -52 -46 -83 -25 -66 -52 -93 -105
-108 -66 -17 -126 8 -126 54 0 35 65 154 122 224 58 71 161 154 248 200 l56
30 12 -27 c6 -15 16 -34 21 -42 6 -8 16 -28 23 -45 7 -16 26 -36 41 -43 58
-28 185 28 213 93 8 19 14 65 14 103 0 44 5 73 13 79 13 11 146 38 257 53 101
14 499 4 614 -14z m-779 -326 c18 -8 18 -9 2 -9 -36 -2 -76 -32 -106 -80 -33
-54 -73 -81 -118 -81 -28 1 -28 1 9 21 23 11 53 42 75 76 50 75 87 95 138 73z
m470 -15 c-22 -7 -63 -27 -90 -44 -35 -22 -68 -33 -105 -36 -59 -6 -58 -2 5
14 22 6 65 26 95 46 41 26 64 35 95 34 l40 -1 -40 -13z m-384 -51 c15 -14 39
-49 55 -77 22 -41 28 -64 27 -113 -1 -87 -29 -140 -113 -215 -38 -33 -73 -74
-79 -91 -27 -78 -1 -169 67 -230 21 -19 116 -76 212 -127 546 -292 812 -510
945 -774 63 -127 86 -224 87 -367 0 -63 -5 -142 -11 -175 -15 -76 -50 -187
-63 -200 -7 -7 -8 -3 -4 11 10 32 -12 253 -35 360 -60 276 -196 537 -379 727
-108 113 -204 177 -318 212 -358 109 -516 176 -605 255 -87 77 -97 135 -47
250 48 109 48 124 8 164 -42 42 -101 61 -273 86 -71 11 -133 20 -137 20 -4 0
3 16 17 35 13 20 26 49 30 65 8 36 46 77 79 86 14 3 66 -4 117 -16 133 -31
182 -16 250 76 22 30 50 59 62 64 33 14 78 3 108 -26z m468 12 c15 -8 40 -32
56 -53 111 -151 175 -173 305 -108 107 54 159 45 200 -35 84 -166 210 -194
480 -108 114 36 175 68 216 115 l30 34 95 -72 c122 -93 383 -356 480 -484 264
-346 427 -715 494 -1115 22 -130 31 -439 16 -581 -80 -773 -519 -1483 -1169
-1892 -417 -262 -967 -396 -1475 -359 -696 51 -1305 314 -1722 743 -230 236
-401 543 -545 979 -80 242 -83 268 -18 145 159 -297 317 -473 591 -659 436
-296 922 -377 1435 -241 324 86 691 305 878 523 160 186 250 377 294 622 10
58 35 150 54 205 46 131 59 223 53 370 -6 147 -22 211 -87 341 -136 273 -390
480 -955 783 -190 101 -254 155 -273 231 -17 68 0 104 87 190 96 93 115 135
110 243 -4 60 -9 82 -32 116 l-28 42 33 -18 c23 -12 55 -18 108 -18 70 0 79 3
135 38 65 40 107 47 154 23z m-1026 -82 c3 -4 -8 -16 -25 -28 -22 -14 -39 -40
-55 -81 -25 -63 -54 -94 -90 -95 l-21 0 21 24 c12 14 33 53 47 88 20 51 32 66
60 80 37 19 53 22 63 12z"/>
<path d="M3370 8134 c-64 -22 -90 -57 -90 -122 0 -104 144 -149 209 -65 36 45
24 136 -23 167 -26 16 -75 27 -96 20z m96 -48 c38 -38 43 -70 19 -116 -19 -37
-43 -50 -90 -50 -47 0 -71 13 -90 50 -24 46 -19 78 19 116 26 26 42 34 71 34
29 0 45 -8 71 -34z"/>
<path d="M2970 6070 l0 -40 40 0 40 0 0 -115 0 -115 -89 0 -90 0 -16 58 c-30
102 -77 159 -165 201 -52 25 -63 26 -215 26 -190 0 -248 -13 -317 -74 -96 -85
-131 -222 -131 -516 0 -292 36 -432 131 -516 59 -51 121 -70 262 -76 315 -15
425 72 462 365 l12 92 78 0 78 0 0 -195 0 -195 -40 0 c-39 0 -40 -1 -40 -35
l0 -35 235 0 235 0 0 35 c0 35 0 35 -45 35 l-45 0 0 530 0 530 40 0 40 0 0 40
0 40 -230 0 -230 0 0 -40z m-409 -70 c48 -26 49 -40 49 -505 0 -538 7 -515
-149 -515 -70 0 -83 3 -108 24 l-28 24 0 467 0 467 28 24 c25 21 38 24 108 24
44 0 89 -5 100 -10z m489 -420 l0 -140 -74 0 -73 0 -7 61 c-3 34 -6 97 -6 140
l0 79 80 0 80 0 0 -140z"/>
<path d="M3940 5734 c-161 -27 -215 -46 -264 -92 -60 -56 -74 -153 -33 -232
27 -55 88 -91 197 -117 64 -15 122 -18 395 -17 298 0 325 2 400 22 141 39 195
96 195 206 0 111 -63 174 -211 212 -51 13 -124 17 -359 19 -162 2 -306 1 -320
-1z m477 -93 c51 -24 72 -54 79 -117 9 -77 -12 -124 -66 -151 -40 -21 -58 -23
-195 -23 -163 0 -215 9 -250 45 -46 45 -44 173 2 220 38 37 71 43 238 44 127
0 156 -2 192 -18z"/>
<path d="M3520 5160 l0 -40 280 0 280 0 0 -55 0 -55 -215 0 -215 0 0 -40 0
-40 415 0 415 0 0 -60 0 -60 -415 0 -415 0 0 -120 c0 -129 9 -162 47 -179 33
-15 952 -15 1023 0 98 21 144 89 121 176 -16 59 -42 78 -107 78 -73 0 -96 -23
-102 -102 -2 -32 -9 -64 -14 -70 -8 -10 -86 -13 -329 -13 l-319 0 0 75 0 75
325 0 325 0 15 24 c22 33 67 50 115 42 l40 -6 0 110 0 110 -205 0 -205 0 0 55
0 55 275 0 275 0 0 40 0 40 -705 0 -705 0 0 -40z"/>
</g>
</svg>
